<svg version="1.2" xmlns="http://www.w3.org/2000/svg" viewBox="0 0 16 13" width="30" height="24">
	<title>contact_icon-svg</title>
	<style>
		.s0 { fill: #000000 } 
	</style>
	<g id="Fuji-ID_Sk_v5">
		<g id="User-Name-Copy-4">
			<path id="Contact-Card" fill-rule="evenodd" class="s0" d="m16 0.7v11.6c0 0.4-0.3 0.7-0.7 0.7h-14.6c-0.4 0-0.7-0.3-0.7-0.7v-11.6c0-0.4 0.3-0.7 0.7-0.7h14.6c0.4 0 0.7 0.3 0.7 0.7zm-1.5 0.7h-13v10.2c0.4-1.7 1.9-2.9 4.6-2.9 2.8 0 4.3 1.2 4.8 2.9h3.6zm-4.3 2.1c0-0.4 0.3-0.7 0.7-0.7h1.5c0.4 0 0.7 0.3 0.7 0.7 0 0.4-0.3 0.7-0.7 0.7h-1.5c-0.4 0-0.7-0.3-0.7-0.7zm2.9 5.8c0 0.4-0.3 0.7-0.7 0.7h-0.8c-0.4 0-0.7-0.3-0.7-0.7 0-0.4 0.3-0.7 0.7-0.7h0.8c0.4 0 0.7 0.3 0.7 0.7zm-3.9 2.2c-0.5-0.9-1.3-1.5-3.1-1.5-1.7 0-2.5 0.6-3 1.5zm1-5.1c0-0.4 0.3-0.7 0.7-0.7h1.5c0.4 0 0.7 0.3 0.7 0.7 0 0.4-0.3 0.7-0.7 0.7h-1.5c-0.4 0-0.7-0.3-0.7-0.7zm-6.6-1.1c0-1.4 1.2-2.5 2.6-2.5 1.4 0 2.5 1.1 2.5 2.5 0 1.4-1.1 2.6-2.5 2.6-1.4 0-2.6-1.2-2.6-2.6zm1.5 0c0 0.6 0.5 1.1 1.1 1.1 0.6 0 1.1-0.5 1.1-1.1 0-0.6-0.5-1.1-1.1-1.1-0.6 0-1.1 0.5-1.1 1.1z"/>
		</g>
	</g>
</svg>