<?xml version="1.0" encoding="UTF-8"?>
<svg width="16px" height="17px" viewBox="0 0 16 17" version="1.1" xmlns="http://www.w3.org/2000/svg" xmlns:xlink="http://www.w3.org/1999/xlink">
    <g id="Fuji-ID_Sk_v5" stroke="none" stroke-width="1" fill="none" fill-rule="evenodd">
        <g id="User-Name-Copy-4" transform="translate(-24.000000, -332.000000)" fill="#1D2228">
            <path d="M25.4545455,343.333333 L25.4545455,347.583333 L38.5454545,347.583333 L38.5454545,340.5 L25.4545455,340.5 L25.4545455,341.916667 L38.5454545,341.916667 L38.5454545,343.333333 L25.4545455,343.333333 Z M34.9090909,339.083333 L34.9090909,336.268939 C34.9090909,335.867278 35.234702,335.541667 35.6363636,335.541667 C36.0380253,335.541667 36.3636364,335.867278 36.3636364,336.268939 L36.3636364,339.083333 L39.2727273,339.083333 C39.6743889,339.083333 40,339.408944 40,339.810606 L40,348.272727 C40,348.674389 39.6743889,349 39.2727273,349 L24.7272727,349 C24.3256111,349 24,348.674389 24,348.272727 L24,339.810606 C24,339.408944 24.3256111,339.083333 24.7272727,339.083333 L27.6363636,339.083333 L27.6363636,336.268939 C27.6363636,335.867278 27.9619747,335.541667 28.3636364,335.541667 C28.765298,335.541667 29.0909091,335.867278 29.0909091,336.268939 L29.0909091,339.083333 L31.2727273,339.083333 L31.2727273,336.268939 C31.2727273,335.867278 31.5983384,335.541667 32,335.541667 C32.4016616,335.541667 32.7272727,335.867278 32.7272727,336.268939 L32.7272727,339.083333 L34.9090909,339.083333 Z M31.9994162,332.526649 C32.4194718,333.105718 33.0696717,334.272478 32.7272727,334.833333 C32.3848737,335.394189 31.6363636,335.394189 31.2727273,334.833333 C31.030303,334.45943 31.2725327,333.690535 31.9994162,332.526649 Z M25.4535758,333.753342 C25.5505455,333.624448 25.6673939,333.510579 25.8002424,333.416432 C25.6673939,333.32252 25.5505455,333.208651 25.4535758,333.079756 C25.3568485,333.208651 25.2397576,333.32252 25.1071515,333.416432 C25.2397576,333.510579 25.3566061,333.624448 25.4535758,333.753342 Z M26.7255758,333.240112 C26.8259394,333.240112 26.9090909,333.318998 26.9090909,333.416197 C26.9090909,333.513396 26.8259394,333.592517 26.7255758,333.592517 C26.1233939,333.592517 25.6353939,334.074053 25.6353939,334.657248 C25.6353939,334.754447 25.5541818,334.833333 25.4538182,334.833333 C25.3534545,334.833333 25.272,334.754447 25.272,334.657248 C25.272,334.074053 24.7837576,333.592517 24.1815758,333.592048 C24.0814545,333.592048 24,333.513396 24,333.416197 C24,333.318998 24.0814545,333.240112 24.1815758,333.240112 C24.7837576,333.240112 25.272,332.759281 25.272,332.176086 C25.272,332.078886 25.3534545,332 25.4538182,332 C25.5541818,332 25.6353939,332.078886 25.6353939,332.176086 C25.6353939,332.759281 26.1233939,333.240112 26.7255758,333.240112 Z M38.5444848,335.878342 C38.6414545,335.749448 38.758303,335.635579 38.8911515,335.541432 C38.758303,335.44752 38.6414545,335.333651 38.5444848,335.204756 C38.4477576,335.333651 38.3306667,335.44752 38.1980606,335.541432 C38.3306667,335.635579 38.4475152,335.749448 38.5444848,335.878342 Z M39.8164848,335.365112 C39.9168485,335.365112 40,335.443998 40,335.541197 C40,335.638396 39.9168485,335.717517 39.8164848,335.717517 C39.214303,335.717517 38.726303,336.199053 38.726303,336.782248 C38.726303,336.879447 38.6450909,336.958333 38.5447273,336.958333 C38.4443636,336.958333 38.3629091,336.879447 38.3629091,336.782248 C38.3629091,336.199053 37.8746667,335.717517 37.2724848,335.717048 C37.1723636,335.717048 37.0909091,335.638396 37.0909091,335.541197 C37.0909091,335.443998 37.1723636,335.365112 37.2724848,335.365112 C37.8746667,335.365112 38.3629091,334.884281 38.3629091,334.301086 C38.3629091,334.203886 38.4443636,334.125 38.5447273,334.125 C38.6450909,334.125 38.726303,334.203886 38.726303,334.301086 C38.726303,334.884281 39.214303,335.365112 39.8164848,335.365112 Z" id="Combined-Shape"></path>
        </g>
    </g>
</svg>